#tb 0: 100/2997
#media_type 0: video
#codec_id 0: rawvideo
#dimensions 0: 1440x1080
#sar 0: 4/3
0,          0,          0,        1,  2332800, 0xd941b42f
0,          1,          1,        1,  2332800, 0xd941b42f
0,          2,          2,        1,  2332800, 0xae0f5983
0,          3,          3,        1,  2332800, 0x51cfc127
0,          4,          4,        1,  2332800, 0x24d40447
0,          5,          5,        1,  2332800, 0x858a9f51
0,          6,          6,        1,  2332800, 0x533b48e8
0,          7,          7,        1,  2332800, 0x2fd73267
0,          8,          8,        1,  2332800, 0x153566c7
0,          9,          9,        1,  2332800, 0xa1c49c45
0,         10,         10,        1,  2332800, 0xb966e25a
0,         11,         11,        1,  2332800, 0xd0ce5985
0,         12,         12,        1,  2332800, 0x0029a52e
0,         13,         13,        1,  2332800, 0x893116c5
0,         14,         14,        1,  2332800, 0x073d2491
